HIERARCHY
ROOT Hips
{
 OFFSET 0.000000 0.000000 0.000000
 CHANNELS 6 Xposition Yposition Zposition Yrotation Xrotation Zrotation
 JOINT Chest
 {
  OFFSET 0.000000 9.585900 0.002600
  CHANNELS 3 Yrotation Xrotation Zrotation
  JOINT Chest2
  {
   OFFSET 0.000000 9.601200 -0.005300
   CHANNELS 3 Yrotation Xrotation Zrotation
   JOINT Chest3
   {
    OFFSET 0.000000 9.561800 0.000000
    CHANNELS 3 Yrotation Xrotation Zrotation
    JOINT Chest4
    {
     OFFSET 0.000000 9.552100 0.000000
     CHANNELS 3 Yrotation Xrotation Zrotation
     JOINT Neck
     {
      OFFSET 0.000000 14.453000 0.000000
      CHANNELS 3 Yrotation Xrotation Zrotation
      JOINT Head
      {
       OFFSET 0.000000 8.936500 -0.011300
       CHANNELS 3 Yrotation Xrotation Zrotation
       End Site
       {
        OFFSET 0.000000 17.073600 -0.006000
       }
      }
     }
     JOINT RightCollar
     {
      OFFSET -2.921100 9.558500 0.000000
      CHANNELS 3 Yrotation Xrotation Zrotation
      JOINT RightShoulder
      {
       OFFSET -13.519700 0.000000 0.000000
       CHANNELS 3 Yrotation Xrotation Zrotation
       JOINT RightElbow
       {
        OFFSET 0.000000 -29.696600 0.000000
        CHANNELS 3 Yrotation Xrotation Zrotation
        JOINT RightWrist
        {
         OFFSET 0.000000 -24.004700 0.000000
         CHANNELS 3 Yrotation Xrotation Zrotation
         End Site
         {
          OFFSET 0.000000 -17.728500 0.000000
         }
        }
       }
      }
     }
     JOINT LeftCollar
     {
      OFFSET 2.921100 9.558500 0.000000
      CHANNELS 3 Yrotation Xrotation Zrotation
      JOINT LeftShoulder
      {
       OFFSET 13.519700 0.000000 0.000000
       CHANNELS 3 Yrotation Xrotation Zrotation
       JOINT LeftElbow
       {
        OFFSET 0.000000 -29.696600 0.000000
        CHANNELS 3 Yrotation Xrotation Zrotation
        JOINT LeftWrist
        {
         OFFSET 0.000000 -24.004700 0.000000
         CHANNELS 3 Yrotation Xrotation Zrotation
         End Site
         {
          OFFSET 0.000000 -17.728500 0.000000
         }
        }
       }
      }
     }
    }
   }
  }
 }
 JOINT RightHip
 {
  OFFSET -7.771700 -0.012900 -0.001300
  CHANNELS 3 Yrotation Xrotation Zrotation
  JOINT RightKnee
  {
   OFFSET 0.000000 -40.869800 0.001200
   CHANNELS 3 Yrotation Xrotation Zrotation
   JOINT RightAnkle
   {
    OFFSET 0.000000 -39.717900 0.002100
    CHANNELS 3 Yrotation Xrotation Zrotation
    JOINT RightToe
    {
     OFFSET 0.000000 -4.965400 11.033500
     CHANNELS 3 Yrotation Xrotation Zrotation
     End Site
     {
      OFFSET 0.000000 -1.423100 5.872300
     }
    }
   }
  }
 }
 JOINT LeftHip
 {
  OFFSET 7.771700 -0.012900 -0.001300
  CHANNELS 3 Yrotation Xrotation Zrotation
  JOINT LeftKnee
  {
   OFFSET 0.000000 -40.869800 0.001200
   CHANNELS 3 Yrotation Xrotation Zrotation
   JOINT LeftAnkle
   {
    OFFSET 0.000000 -39.717900 0.002100
    CHANNELS 3 Yrotation Xrotation Zrotation
    JOINT LeftToe
    {
     OFFSET 0.000000 -4.965400 11.033500
     CHANNELS 3 Yrotation Xrotation Zrotation
     End Site
     {
      OFFSET 0.000000 -1.423100 5.872300
     }
    }
   }
  }
 }
}
MOTION
Frames: 6
Frame Time: 0.008333
-19.123724 57.491726 30.372299 168.542353 -37.461623 0.917595 8.037707 22.695041 3.586195 1.014128 3.414739 0.348814 1.753248 5.470134 0.597244 6.501729 18.840678 2.874865 -8.218146 11.313085 0.422253 -15.935507 -14.265836 4.323264 4.750295 -0.734600 3.241751 33.600898 -28.259136 -26.166395 55.787933 -71.401037 -12.146089 4.540758 -5.391773 -25.343354 -8.037328 -1.619168 -1.053257 -11.612466 -16.621617 7.377661 -67.067848 -62.942539 21.794375 -38.350493 0.604031 26.572003 16.025271 -36.180729 0.741986 -11.024717 68.287350 -7.513548 -0.568113 14.333923 1.843347 -0.296480 -9.690877 3.884403 -5.606539 -39.951127 0.984130 28.654272 72.245065 25.397265 -19.640703 16.077629 -3.986121 -0.044877 -6.797374 1.017086
-19.141641 57.415056 30.350961 168.485312 -37.409071 1.042463 7.868550 22.696014 3.412937 1.028173 3.391981 0.342152 1.722615 5.451194 0.580227 6.404090 18.833752 2.809909 -8.066534 11.400038 0.448718 -15.646079 -14.119369 4.297899 4.957402 -0.783091 3.176381 33.245257 -27.845175 -26.016188 51.323863 -71.594177 -8.275371 4.416478 -7.628385 -26.739276 -7.894096 -1.727942 -1.172809 -11.988722 -16.501032 7.616856 -66.994757 -62.701935 22.292494 -39.990072 1.326241 24.353038 16.071505 -36.232373 0.712883 -11.199582 68.356756 -7.794580 -0.529070 14.279224 1.888514 -0.317941 -9.690959 3.887415 -5.286797 -40.044323 0.768221 28.585907 72.295962 25.455698 -19.702535 15.991805 -4.001905 -0.007803 -6.983392 1.052768
-19.160122 57.347950 30.333344 168.381083 -37.358963 1.185711 7.752527 22.673947 3.271906 1.042868 3.371087 0.332290 1.691973 5.427873 0.566414 6.309532 18.818404 2.756755 -7.927939 11.490973 0.465371 -15.377099 -13.965300 4.258978 5.171703 -0.751785 3.124068 32.777538 -27.483882 -25.791653 48.433706 -71.750342 -5.714513 4.464581 -9.690735 -28.418162 -7.758206 -1.794355 -1.322109 -12.502792 -16.504005 7.816895 -68.399174 -61.767473 24.528520 -40.748930 1.268366 22.139274 16.057009 -36.301839 0.764688 -11.276045 68.434899 -8.073107 -0.526249 14.267162 1.937681 -0.314868 -9.723064 3.896469 -4.938446 -40.131850 0.587853 28.635079 72.367399 25.555608 -19.688726 15.926131 -3.866383 -0.063113 -7.193800 1.037759
-19.173693 57.295975 30.314955 168.346671 -37.353490 1.259194 7.699042 22.675146 3.200795 0.982328 3.346691 0.337222 1.663393 5.403975 0.555242 6.222530 18.799824 2.713396 -7.805428 11.579877 0.474980 -15.136592 -13.813941 4.213968 5.355322 -0.704212 3.073261 32.191551 -27.159374 -25.469371 47.378030 -71.945874 -4.702539 4.830835 -11.107350 -30.324047 -7.641269 -1.842021 -1.485507 -13.132612 -16.609230 7.986006 -70.484847 -60.322998 27.370014 -40.841175 1.066427 20.595326 16.028871 -36.319690 0.804722 -11.285293 68.495670 -8.209390 -0.537231 14.264003 1.976468 -0.315281 -9.758857 3.898120 -4.692708 -40.155874 0.465075 28.615827 72.415011 25.575560 -19.717316 15.869974 -3.784562 -0.083640 -7.403339 1.049487
-19.189121 57.254255 30.303559 168.314385 -37.324203 1.342549 7.643936 22.649849 3.118075 0.979423 3.338875 0.335508 1.598678 5.368457 0.559897 6.142475 18.785013 2.679504 -7.698360 11.656710 0.477720 -14.924395 -13.683747 4.164243 5.447397 -0.782435 3.005555 31.534983 -26.767602 -25.023034 47.886882 -72.258589 -5.103558 5.426232 -11.460931 -32.263870 -7.540489 -1.903017 -1.653119 -13.861741 -16.780721 8.139884 -72.507728 -58.665977 29.912909 -40.693572 1.001840 19.857032 16.047609 -36.355572 0.783540 -11.252751 68.545325 -8.260116 -0.560404 14.249053 1.997019 -0.303570 -9.769946 3.901569 -4.496833 -40.181516 0.373726 28.616866 72.424722 25.575575 -19.798441 15.774086 -3.755058 -0.067393 -7.561977 1.091134
-19.198824 57.227702 30.296847 168.307543 -37.299495 1.385894 7.549825 22.618206 3.066560 0.959484 3.317623 0.339216 1.597259 5.362032 0.547857 6.069170 18.776885 2.654701 -7.605223 11.716729 0.473139 -14.737802 -13.583751 4.108805 5.523102 -0.833231 2.946082 30.842629 -26.415619 -24.641865 49.245669 -72.578572 -6.328492 5.873619 -11.163851 -33.895261 -7.456919 -1.990444 -1.815699 -14.639768 -16.979700 8.282756 -74.069361 -57.178845 31.763774 -40.606592 1.106860 19.719535 15.915546 -36.418548 0.880587 -11.241757 68.604589 -8.434095 -0.571439 14.297701 2.001375 -0.289805 -9.834839 3.930730 -4.420737 -40.183096 0.376064 28.680156 72.400869 25.572421 -19.926595 15.717876 -3.738332 -0.038327 -7.747257 1.135437
